<mxfile host="Electron" modified="2024-04-10T20:19:55.188Z" agent="Mozilla/5.0 (Windows NT 10.0; Win64; x64) AppleWebKit/537.36 (KHTML, like Gecko) draw.io/24.1.0 Chrome/120.0.6099.109 Electron/28.1.0 Safari/537.36" etag="ye1Fz_3buUmAJC-j-qiQ" version="24.1.0" type="device">
  <diagram name="Page-1" id="7e0a89b8-554c-2b80-1dc8-d5c74ca68de4">
    <mxGraphModel dx="1235" dy="731" grid="1" gridSize="10" guides="1" tooltips="1" connect="1" arrows="1" fold="1" page="1" pageScale="1" pageWidth="1100" pageHeight="850" background="none" math="0" shadow="0">
      <root>
        <mxCell id="0" />
        <mxCell id="1" parent="0" />
        <mxCell id="SxkDKQYkMRuR0uMvyXnK-8" style="edgeStyle=orthogonalEdgeStyle;rounded=0;orthogonalLoop=1;jettySize=auto;html=1;exitX=1;exitY=0.5;exitDx=0;exitDy=0;entryX=0;entryY=0.5;entryDx=0;entryDy=0;movable=0;resizable=0;rotatable=0;deletable=0;editable=0;locked=1;connectable=0;" parent="1" source="SxkDKQYkMRuR0uMvyXnK-3" target="SxkDKQYkMRuR0uMvyXnK-6" edge="1">
          <mxGeometry relative="1" as="geometry" />
        </mxCell>
        <mxCell id="SxkDKQYkMRuR0uMvyXnK-26" style="edgeStyle=orthogonalEdgeStyle;rounded=0;orthogonalLoop=1;jettySize=auto;html=1;exitX=1;exitY=0.5;exitDx=0;exitDy=0;entryX=0;entryY=0.5;entryDx=0;entryDy=0;startArrow=none;startFill=0;" parent="1" source="SxkDKQYkMRuR0uMvyXnK-6" target="SxkDKQYkMRuR0uMvyXnK-24" edge="1">
          <mxGeometry relative="1" as="geometry" />
        </mxCell>
        <mxCell id="SxkDKQYkMRuR0uMvyXnK-3" value="&lt;font style=&quot;font-size: 12px;&quot;&gt;EVSE&lt;/font&gt;" style="whiteSpace=wrap;html=1;fillColor=#fad7ac;strokeColor=#b46504;movable=1;resizable=1;rotatable=1;deletable=1;editable=1;locked=0;connectable=1;" parent="1" vertex="1">
          <mxGeometry x="40" y="200" width="40" height="160" as="geometry" />
        </mxCell>
        <mxCell id="SxkDKQYkMRuR0uMvyXnK-33" style="edgeStyle=orthogonalEdgeStyle;rounded=0;orthogonalLoop=1;jettySize=auto;html=1;exitX=0.486;exitY=0.99;exitDx=0;exitDy=0;exitPerimeter=0;fillColor=#0050ef;strokeColor=#001DBC;" parent="1" source="SxkDKQYkMRuR0uMvyXnK-6" edge="1">
          <mxGeometry relative="1" as="geometry">
            <mxPoint x="410" y="533" as="targetPoint" />
            <mxPoint x="305" y="318" as="sourcePoint" />
            <Array as="points">
              <mxPoint x="273" y="533" />
            </Array>
          </mxGeometry>
        </mxCell>
        <mxCell id="SxkDKQYkMRuR0uMvyXnK-6" value="Current Sense" style="whiteSpace=wrap;html=1;movable=1;resizable=1;rotatable=1;deletable=1;editable=1;locked=0;connectable=1;fillColor=#d5e8d4;strokeColor=#82b366;gradientColor=#97d077;" parent="1" vertex="1">
          <mxGeometry x="220" y="255" width="110" height="50" as="geometry" />
        </mxCell>
        <mxCell id="SxkDKQYkMRuR0uMvyXnK-12" style="edgeStyle=orthogonalEdgeStyle;rounded=0;orthogonalLoop=1;jettySize=auto;html=1;exitX=0.975;exitY=0.449;exitDx=0;exitDy=0;entryX=0;entryY=0.5;entryDx=0;entryDy=0;movable=1;resizable=1;rotatable=1;deletable=1;editable=1;locked=0;connectable=1;exitPerimeter=0;" parent="1" source="SxkDKQYkMRuR0uMvyXnK-3" edge="1">
          <mxGeometry relative="1" as="geometry">
            <mxPoint x="130" y="270" as="sourcePoint" />
            <mxPoint x="220" y="270" as="targetPoint" />
          </mxGeometry>
        </mxCell>
        <mxCell id="SxkDKQYkMRuR0uMvyXnK-20" style="edgeStyle=orthogonalEdgeStyle;rounded=0;orthogonalLoop=1;jettySize=auto;html=1;exitX=0;exitY=0.25;exitDx=0;exitDy=0;startArrow=classic;startFill=1;endArrow=none;endFill=0;movable=1;resizable=1;rotatable=1;deletable=1;editable=1;locked=0;connectable=1;fillColor=#0050ef;strokeColor=#001DBC;" parent="1" source="SxkDKQYkMRuR0uMvyXnK-13" edge="1">
          <mxGeometry relative="1" as="geometry">
            <mxPoint x="190" y="270" as="targetPoint" />
          </mxGeometry>
        </mxCell>
        <mxCell id="SxkDKQYkMRuR0uMvyXnK-21" style="edgeStyle=orthogonalEdgeStyle;rounded=0;orthogonalLoop=1;jettySize=auto;html=1;exitX=0;exitY=0.5;exitDx=0;exitDy=0;startArrow=classic;startFill=1;endArrow=none;endFill=0;movable=1;resizable=1;rotatable=1;deletable=1;editable=1;locked=0;connectable=1;fillColor=#0050ef;strokeColor=#001DBC;" parent="1" source="SxkDKQYkMRuR0uMvyXnK-13" edge="1">
          <mxGeometry relative="1" as="geometry">
            <mxPoint x="180" y="280" as="targetPoint" />
          </mxGeometry>
        </mxCell>
        <mxCell id="SxkDKQYkMRuR0uMvyXnK-13" value="Voltage Sense" style="whiteSpace=wrap;html=1;movable=1;resizable=1;rotatable=1;deletable=1;editable=1;locked=0;connectable=1;fillColor=#d5e8d4;strokeColor=#82b366;gradientColor=#97d077;" parent="1" vertex="1">
          <mxGeometry x="220" y="550" width="110" height="50" as="geometry" />
        </mxCell>
        <mxCell id="SxkDKQYkMRuR0uMvyXnK-24" value="&lt;font style=&quot;font-size: 18px;&quot;&gt;Totem-pole Interleaving PFC&amp;nbsp;&lt;/font&gt;" style="whiteSpace=wrap;html=1;aspect=fixed;fillColor=#fad7ac;strokeColor=#b46504;fontStyle=0" parent="1" vertex="1">
          <mxGeometry x="410" y="200" width="160" height="160" as="geometry" />
        </mxCell>
        <mxCell id="SxkDKQYkMRuR0uMvyXnK-30" style="edgeStyle=orthogonalEdgeStyle;rounded=0;orthogonalLoop=1;jettySize=auto;html=1;exitX=1;exitY=0.5;exitDx=0;exitDy=0;entryX=0;entryY=0.5;entryDx=0;entryDy=0;startArrow=none;startFill=0;" parent="1" edge="1">
          <mxGeometry relative="1" as="geometry">
            <mxPoint x="330" y="270" as="sourcePoint" />
            <mxPoint x="410" y="270" as="targetPoint" />
          </mxGeometry>
        </mxCell>
        <mxCell id="SxkDKQYkMRuR0uMvyXnK-39" style="edgeStyle=orthogonalEdgeStyle;rounded=0;orthogonalLoop=1;jettySize=auto;html=1;exitX=0.5;exitY=0;exitDx=0;exitDy=0;entryX=0.5;entryY=1;entryDx=0;entryDy=0;fillColor=#ffcd28;strokeColor=#d79b00;strokeWidth=2;gradientColor=#ffa500;" parent="1" source="SxkDKQYkMRuR0uMvyXnK-32" target="SxkDKQYkMRuR0uMvyXnK-38" edge="1">
          <mxGeometry relative="1" as="geometry" />
        </mxCell>
        <mxCell id="_-fS0b-BmXpxzHIsgftU-8" style="edgeStyle=orthogonalEdgeStyle;rounded=0;orthogonalLoop=1;jettySize=auto;html=1;exitX=1;exitY=0.75;exitDx=0;exitDy=0;entryX=0;entryY=0.5;entryDx=0;entryDy=0;endArrow=none;endFill=0;startArrow=classic;startFill=1;fillColor=#0050ef;strokeColor=#001DBC;" parent="1" source="SxkDKQYkMRuR0uMvyXnK-32" target="_-fS0b-BmXpxzHIsgftU-7" edge="1">
          <mxGeometry relative="1" as="geometry" />
        </mxCell>
        <mxCell id="SxkDKQYkMRuR0uMvyXnK-32" value="MCU/Control Unit" style="rounded=0;whiteSpace=wrap;html=1;fillColor=#dae8fc;strokeColor=#6c8ebf;gradientColor=#7ea6e0;" parent="1" vertex="1">
          <mxGeometry x="410" y="520" width="160" height="80" as="geometry" />
        </mxCell>
        <mxCell id="SxkDKQYkMRuR0uMvyXnK-35" style="edgeStyle=orthogonalEdgeStyle;rounded=0;orthogonalLoop=1;jettySize=auto;html=1;exitX=1;exitY=0.5;exitDx=0;exitDy=0;entryX=0;entryY=0.5;entryDx=0;entryDy=0;startArrow=none;startFill=0;fillColor=#0050ef;strokeColor=#001DBC;" parent="1" edge="1">
          <mxGeometry relative="1" as="geometry">
            <mxPoint x="330" y="574.87" as="sourcePoint" />
            <mxPoint x="410" y="574.87" as="targetPoint" />
          </mxGeometry>
        </mxCell>
        <mxCell id="SxkDKQYkMRuR0uMvyXnK-36" style="edgeStyle=orthogonalEdgeStyle;rounded=0;orthogonalLoop=1;jettySize=auto;html=1;exitX=1;exitY=0.5;exitDx=0;exitDy=0;entryX=0;entryY=0.5;entryDx=0;entryDy=0;startArrow=none;startFill=0;fillColor=#0050ef;strokeColor=#001DBC;" parent="1" edge="1">
          <mxGeometry relative="1" as="geometry">
            <mxPoint x="330" y="559.87" as="sourcePoint" />
            <mxPoint x="410" y="559.87" as="targetPoint" />
          </mxGeometry>
        </mxCell>
        <mxCell id="SxkDKQYkMRuR0uMvyXnK-40" style="edgeStyle=orthogonalEdgeStyle;rounded=0;orthogonalLoop=1;jettySize=auto;html=1;exitX=0.5;exitY=0;exitDx=0;exitDy=0;entryX=0.5;entryY=1;entryDx=0;entryDy=0;fillColor=#ffcd28;strokeColor=#d79b00;strokeWidth=2;gradientColor=#ffa500;" parent="1" source="SxkDKQYkMRuR0uMvyXnK-38" target="SxkDKQYkMRuR0uMvyXnK-24" edge="1">
          <mxGeometry relative="1" as="geometry" />
        </mxCell>
        <mxCell id="SxkDKQYkMRuR0uMvyXnK-84" style="edgeStyle=orthogonalEdgeStyle;rounded=0;orthogonalLoop=1;jettySize=auto;html=1;exitX=0.75;exitY=0;exitDx=0;exitDy=0;entryX=0.344;entryY=0.991;entryDx=0;entryDy=0;entryPerimeter=0;fillColor=#ffcd28;strokeColor=#d79b00;strokeWidth=2;gradientColor=#ffa500;" parent="1" source="SxkDKQYkMRuR0uMvyXnK-38" target="SxkDKQYkMRuR0uMvyXnK-41" edge="1">
          <mxGeometry relative="1" as="geometry" />
        </mxCell>
        <mxCell id="SxkDKQYkMRuR0uMvyXnK-38" value="Gate Driver" style="rounded=0;whiteSpace=wrap;html=1;fillColor=#f5f5f5;strokeColor=#666666;gradientColor=#b3b3b3;" parent="1" vertex="1">
          <mxGeometry x="435" y="410" width="110" height="40" as="geometry" />
        </mxCell>
        <mxCell id="SxkDKQYkMRuR0uMvyXnK-82" style="edgeStyle=orthogonalEdgeStyle;rounded=0;orthogonalLoop=1;jettySize=auto;html=1;exitX=0.5;exitY=1;exitDx=0;exitDy=0;entryX=0.5;entryY=0;entryDx=0;entryDy=0;fillColor=#0050ef;strokeColor=#001DBC;" parent="1" source="SxkDKQYkMRuR0uMvyXnK-41" target="SxkDKQYkMRuR0uMvyXnK-78" edge="1">
          <mxGeometry relative="1" as="geometry">
            <Array as="points">
              <mxPoint x="825" y="360" />
            </Array>
          </mxGeometry>
        </mxCell>
        <mxCell id="SxkDKQYkMRuR0uMvyXnK-41" value="&lt;span style=&quot;font-size: 18px;&quot;&gt;LLC Resonant Converter&lt;/span&gt;" style="whiteSpace=wrap;html=1;aspect=fixed;fillColor=#fad7ac;strokeColor=#b46504;" parent="1" vertex="1">
          <mxGeometry x="730" y="200" width="160" height="160" as="geometry" />
        </mxCell>
        <mxCell id="SxkDKQYkMRuR0uMvyXnK-42" value="&lt;font style=&quot;font-size: 12px;&quot;&gt;DC-LINK&lt;/font&gt;" style="whiteSpace=wrap;html=1;fillColor=#fad7ac;strokeColor=#b46504;fontSize=12;fontStyle=1" parent="1" vertex="1">
          <mxGeometry x="620" y="200" width="60" height="160" as="geometry" />
        </mxCell>
        <mxCell id="SxkDKQYkMRuR0uMvyXnK-43" style="edgeStyle=orthogonalEdgeStyle;rounded=0;orthogonalLoop=1;jettySize=auto;html=1;startArrow=none;startFill=0;endArrow=none;endFill=0;fontSize=16;strokeWidth=2;" parent="1" edge="1">
          <mxGeometry relative="1" as="geometry">
            <mxPoint x="570" y="220" as="sourcePoint" />
            <mxPoint x="620" y="220" as="targetPoint" />
          </mxGeometry>
        </mxCell>
        <mxCell id="SxkDKQYkMRuR0uMvyXnK-46" style="edgeStyle=orthogonalEdgeStyle;rounded=0;orthogonalLoop=1;jettySize=auto;html=1;startArrow=none;startFill=0;endArrow=none;endFill=0;strokeWidth=2;" parent="1" edge="1">
          <mxGeometry relative="1" as="geometry">
            <mxPoint x="570" y="340" as="sourcePoint" />
            <mxPoint x="620" y="340" as="targetPoint" />
          </mxGeometry>
        </mxCell>
        <mxCell id="SxkDKQYkMRuR0uMvyXnK-47" style="edgeStyle=orthogonalEdgeStyle;rounded=0;orthogonalLoop=1;jettySize=auto;html=1;startArrow=none;startFill=0;endArrow=none;endFill=0;strokeWidth=2;" parent="1" edge="1">
          <mxGeometry relative="1" as="geometry">
            <mxPoint x="680" y="220" as="sourcePoint" />
            <mxPoint x="730" y="220" as="targetPoint" />
          </mxGeometry>
        </mxCell>
        <mxCell id="SxkDKQYkMRuR0uMvyXnK-49" style="edgeStyle=orthogonalEdgeStyle;rounded=0;orthogonalLoop=1;jettySize=auto;html=1;startArrow=none;startFill=0;endArrow=none;endFill=0;strokeWidth=2;" parent="1" edge="1">
          <mxGeometry relative="1" as="geometry">
            <mxPoint x="680" y="339.75" as="sourcePoint" />
            <mxPoint x="730" y="339.75" as="targetPoint" />
          </mxGeometry>
        </mxCell>
        <mxCell id="SxkDKQYkMRuR0uMvyXnK-50" value="&lt;font style=&quot;font-size: 12px;&quot;&gt;Filtering&lt;/font&gt;" style="whiteSpace=wrap;html=1;fillColor=#fad7ac;strokeColor=#b46504;movable=1;resizable=1;rotatable=1;deletable=1;editable=1;locked=0;connectable=1;direction=west;" parent="1" vertex="1">
          <mxGeometry x="100" y="200" width="50" height="160" as="geometry" />
        </mxCell>
        <mxCell id="SxkDKQYkMRuR0uMvyXnK-56" value="&lt;font style=&quot;font-size: 16px;&quot;&gt;Filter&lt;/font&gt;" style="whiteSpace=wrap;html=1;fillColor=#fad7ac;strokeColor=#b46504;movable=1;resizable=1;rotatable=1;deletable=1;editable=1;locked=0;connectable=1;direction=west;fontStyle=1" parent="1" vertex="1">
          <mxGeometry x="940" y="200" width="50" height="160" as="geometry" />
        </mxCell>
        <mxCell id="SxkDKQYkMRuR0uMvyXnK-57" style="edgeStyle=orthogonalEdgeStyle;rounded=0;orthogonalLoop=1;jettySize=auto;html=1;startArrow=none;startFill=0;endArrow=none;endFill=0;strokeWidth=2;" parent="1" edge="1">
          <mxGeometry relative="1" as="geometry">
            <mxPoint x="890" y="220" as="sourcePoint" />
            <mxPoint x="940" y="220" as="targetPoint" />
          </mxGeometry>
        </mxCell>
        <mxCell id="SxkDKQYkMRuR0uMvyXnK-58" value="&lt;font style=&quot;font-size: 15px;&quot;&gt;BAT&lt;/font&gt;" style="whiteSpace=wrap;html=1;fillColor=#fad7ac;strokeColor=#b46504;movable=1;resizable=1;rotatable=1;deletable=1;editable=1;locked=0;connectable=1;direction=west;fontStyle=1;fontSize=15;" parent="1" vertex="1">
          <mxGeometry x="1040" y="200" width="50" height="160" as="geometry" />
        </mxCell>
        <mxCell id="SxkDKQYkMRuR0uMvyXnK-59" style="edgeStyle=orthogonalEdgeStyle;rounded=0;orthogonalLoop=1;jettySize=auto;html=1;startArrow=none;startFill=0;endArrow=none;endFill=0;strokeWidth=2;" parent="1" edge="1">
          <mxGeometry relative="1" as="geometry">
            <mxPoint x="890" y="339.75" as="sourcePoint" />
            <mxPoint x="940" y="339.75" as="targetPoint" />
          </mxGeometry>
        </mxCell>
        <mxCell id="SxkDKQYkMRuR0uMvyXnK-60" style="edgeStyle=orthogonalEdgeStyle;rounded=0;orthogonalLoop=1;jettySize=auto;html=1;startArrow=none;startFill=0;endArrow=none;endFill=0;strokeWidth=2;" parent="1" edge="1">
          <mxGeometry relative="1" as="geometry">
            <mxPoint x="990" y="220" as="sourcePoint" />
            <mxPoint x="1040" y="220" as="targetPoint" />
          </mxGeometry>
        </mxCell>
        <mxCell id="SxkDKQYkMRuR0uMvyXnK-62" style="edgeStyle=orthogonalEdgeStyle;rounded=0;orthogonalLoop=1;jettySize=auto;html=1;startArrow=none;startFill=0;endArrow=none;endFill=0;strokeWidth=2;" parent="1" edge="1">
          <mxGeometry relative="1" as="geometry">
            <mxPoint x="990" y="340" as="sourcePoint" />
            <mxPoint x="1040" y="340" as="targetPoint" />
          </mxGeometry>
        </mxCell>
        <mxCell id="SxkDKQYkMRuR0uMvyXnK-68" style="edgeStyle=orthogonalEdgeStyle;rounded=0;orthogonalLoop=1;jettySize=auto;html=1;exitX=1;exitY=0.5;exitDx=0;exitDy=0;endArrow=none;endFill=0;fillColor=#0050ef;strokeColor=#001DBC;" parent="1" source="SxkDKQYkMRuR0uMvyXnK-64" edge="1">
          <mxGeometry relative="1" as="geometry">
            <mxPoint x="1010" y="220" as="targetPoint" />
          </mxGeometry>
        </mxCell>
        <mxCell id="_-fS0b-BmXpxzHIsgftU-11" style="edgeStyle=orthogonalEdgeStyle;rounded=0;orthogonalLoop=1;jettySize=auto;html=1;exitX=0;exitY=0.5;exitDx=0;exitDy=0;entryX=1.003;entryY=0.346;entryDx=0;entryDy=0;entryPerimeter=0;fillColor=#0050ef;strokeColor=#001DBC;" parent="1" source="SxkDKQYkMRuR0uMvyXnK-64" target="_-fS0b-BmXpxzHIsgftU-7" edge="1">
          <mxGeometry relative="1" as="geometry" />
        </mxCell>
        <mxCell id="SxkDKQYkMRuR0uMvyXnK-64" value="Voltage Sense" style="whiteSpace=wrap;html=1;movable=1;resizable=1;rotatable=1;deletable=1;editable=1;locked=0;connectable=1;fillColor=#d5e8d4;strokeColor=#82b366;gradientColor=#97d077;" parent="1" vertex="1">
          <mxGeometry x="880" y="520" width="110" height="50" as="geometry" />
        </mxCell>
        <mxCell id="SxkDKQYkMRuR0uMvyXnK-69" style="edgeStyle=orthogonalEdgeStyle;rounded=0;orthogonalLoop=1;jettySize=auto;html=1;exitX=1;exitY=0.5;exitDx=0;exitDy=0;endArrow=none;endFill=0;fillColor=#0050ef;strokeColor=#001DBC;" parent="1" source="SxkDKQYkMRuR0uMvyXnK-66" edge="1">
          <mxGeometry relative="1" as="geometry">
            <mxPoint x="1030" y="340" as="targetPoint" />
          </mxGeometry>
        </mxCell>
        <mxCell id="SxkDKQYkMRuR0uMvyXnK-72" style="edgeStyle=orthogonalEdgeStyle;rounded=0;orthogonalLoop=1;jettySize=auto;html=1;exitX=0;exitY=0.5;exitDx=0;exitDy=0;entryX=0.983;entryY=0.615;entryDx=0;entryDy=0;entryPerimeter=0;fillColor=#0050ef;strokeColor=#001DBC;" parent="1" source="SxkDKQYkMRuR0uMvyXnK-66" edge="1">
          <mxGeometry relative="1" as="geometry">
            <mxPoint x="828.3" y="591.9299999999998" as="targetPoint" />
          </mxGeometry>
        </mxCell>
        <mxCell id="SxkDKQYkMRuR0uMvyXnK-66" value="Current Sense" style="whiteSpace=wrap;html=1;movable=1;resizable=1;rotatable=1;deletable=1;editable=1;locked=0;connectable=1;fillColor=#d5e8d4;strokeColor=#82b366;gradientColor=#97d077;" parent="1" vertex="1">
          <mxGeometry x="880" y="592.53" width="110" height="50" as="geometry" />
        </mxCell>
        <mxCell id="SxkDKQYkMRuR0uMvyXnK-75" style="edgeStyle=orthogonalEdgeStyle;rounded=0;orthogonalLoop=1;jettySize=auto;html=1;exitX=0.5;exitY=0;exitDx=0;exitDy=0;endArrow=none;endFill=0;startArrow=classic;startFill=1;fillColor=#0050ef;strokeColor=#001DBC;" parent="1" source="SxkDKQYkMRuR0uMvyXnK-74" edge="1">
          <mxGeometry relative="1" as="geometry">
            <mxPoint x="694.5263157894738" y="220" as="targetPoint" />
          </mxGeometry>
        </mxCell>
        <mxCell id="SxkDKQYkMRuR0uMvyXnK-76" style="edgeStyle=orthogonalEdgeStyle;rounded=0;orthogonalLoop=1;jettySize=auto;html=1;exitX=0.5;exitY=1;exitDx=0;exitDy=0;entryX=1;entryY=0.25;entryDx=0;entryDy=0;fillColor=#0050ef;strokeColor=#001DBC;" parent="1" source="SxkDKQYkMRuR0uMvyXnK-74" target="SxkDKQYkMRuR0uMvyXnK-32" edge="1">
          <mxGeometry relative="1" as="geometry" />
        </mxCell>
        <mxCell id="SxkDKQYkMRuR0uMvyXnK-74" value="Voltage Sense" style="whiteSpace=wrap;html=1;movable=1;resizable=1;rotatable=1;deletable=1;editable=1;locked=0;connectable=1;fillColor=#d5e8d4;strokeColor=#82b366;gradientColor=#97d077;" parent="1" vertex="1">
          <mxGeometry x="640" y="420" width="110" height="50" as="geometry" />
        </mxCell>
        <mxCell id="SxkDKQYkMRuR0uMvyXnK-80" style="edgeStyle=elbowEdgeStyle;rounded=0;orthogonalLoop=1;jettySize=auto;html=1;exitX=0.5;exitY=1;exitDx=0;exitDy=0;endArrow=none;endFill=0;elbow=vertical;fillColor=#0050ef;strokeColor=#001DBC;" parent="1" source="SxkDKQYkMRuR0uMvyXnK-78" edge="1">
          <mxGeometry relative="1" as="geometry">
            <mxPoint x="710" y="550" as="targetPoint" />
            <mxPoint x="845" y="470.0000000000001" as="sourcePoint" />
            <Array as="points">
              <mxPoint x="790" y="510" />
            </Array>
          </mxGeometry>
        </mxCell>
        <mxCell id="SxkDKQYkMRuR0uMvyXnK-78" value="Current Sense" style="whiteSpace=wrap;html=1;movable=1;resizable=1;rotatable=1;deletable=1;editable=1;locked=0;connectable=1;fillColor=#d5e8d4;strokeColor=#82b366;gradientColor=#97d077;" parent="1" vertex="1">
          <mxGeometry x="770" y="420" width="110" height="50" as="geometry" />
        </mxCell>
        <mxCell id="SxkDKQYkMRuR0uMvyXnK-81" style="edgeStyle=orthogonalEdgeStyle;rounded=0;orthogonalLoop=1;jettySize=auto;html=1;startArrow=classic;startFill=1;endArrow=none;endFill=0;fillColor=#0050ef;strokeColor=#001DBC;" parent="1" edge="1">
          <mxGeometry relative="1" as="geometry">
            <mxPoint x="570" y="559.7" as="sourcePoint" />
            <mxPoint x="710" y="550" as="targetPoint" />
            <Array as="points">
              <mxPoint x="710" y="560" />
            </Array>
          </mxGeometry>
        </mxCell>
        <mxCell id="_-fS0b-BmXpxzHIsgftU-4" value="&lt;h1 style=&quot;font-size: 28px;&quot;&gt;&lt;font style=&quot;font-size: 28px;&quot;&gt;EV OBC With PFC and LLC Resonant Converter&amp;nbsp;&lt;/font&gt;&lt;/h1&gt;&lt;h1 style=&quot;font-size: 28px;&quot;&gt;&lt;font style=&quot;font-size: 28px;&quot;&gt;Bloc Diagram&lt;/font&gt;&lt;/h1&gt;&lt;p style=&quot;font-size: 28px;&quot;&gt;&lt;br style=&quot;font-size: 28px;&quot;&gt;&lt;/p&gt;" style="text;html=1;spacing=5;spacingTop=-20;whiteSpace=wrap;overflow=hidden;rounded=0;align=center;strokeColor=none;shadow=0;glass=0;fontFamily=Times New Roman;fontSize=28;fontColor=#4D4D4D;labelBorderColor=none;" parent="1" vertex="1">
          <mxGeometry x="80" y="40" width="960" height="100" as="geometry" />
        </mxCell>
        <mxCell id="_-fS0b-BmXpxzHIsgftU-6" value="Isolation" style="rounded=0;whiteSpace=wrap;html=1;fillColor=#f5f5f5;strokeColor=#666666;gradientColor=#b3b3b3;" parent="1" vertex="1">
          <mxGeometry x="435" y="470" width="110" height="40" as="geometry" />
        </mxCell>
        <mxCell id="_-fS0b-BmXpxzHIsgftU-7" value="Isolation" style="rounded=0;whiteSpace=wrap;html=1;fillColor=#f5f5f5;strokeColor=#666666;gradientColor=#b3b3b3;" parent="1" vertex="1">
          <mxGeometry x="720" y="560" width="110" height="40" as="geometry" />
        </mxCell>
      </root>
    </mxGraphModel>
  </diagram>
</mxfile>
